<svg width="163" height="60" viewBox="0 0 163 60" fill="none" xmlns="http://www.w3.org/2000/svg">
<path d="M60.99 14.51C62.06 13.9953 65.1425 12.5671 66.5244 11.9519C66.3701 12.6224 66.2158 13.2929 66.0531 13.9635C65.664 15.5694 65.2297 17.3999 64.7785 19.2925C63.9752 22.6719 63.1451 26.1654 62.4306 28.995C61.3171 33.4071 60.0408 37.9214 59.0178 41.0645C58.5393 42.7274 57.6002 44.2212 56.3088 45.3735C55.0174 46.5259 53.4263 47.2897 51.7192 47.577C48.9178 47.9838 46.0859 48.1414 43.2567 48.048C45.4503 46.0079 47.6909 43.304 48.0984 42.9822L48.6317 42.952C49.8674 42.9838 51.0921 42.7127 52.1988 42.1625C53.3699 41.4644 54.2197 40.3344 54.5652 39.016C55.3719 35.6952 56.4988 31.5816 57.5084 27.6053C58.4644 23.8437 59.4505 19.9546 60.2219 16.7964L60.7502 14.6256L60.99 14.51Z" fill="#09565F"/>
<path d="M162.292 15.4938C159.884 15.37 157.469 15.4721 155.08 15.7989C153.307 16.0972 151.655 16.8906 150.313 18.0874C148.971 19.2841 147.996 20.8356 147.498 22.5628C146.435 25.8316 144.562 33.5913 144.156 35.2609C143.988 35.9549 143.935 36.3991 143.775 37.0948H149.117C149.117 37.0948 151.198 28.1416 152.037 24.6901C152.176 24.0528 152.447 23.4518 152.834 22.9259C153.22 22.4001 153.712 21.9612 154.279 21.6375C155.213 21.2632 156.199 21.0304 157.202 20.9468L162.292 15.4938Z" fill="#09565F"/>
<path d="M101.136 16.2767C100.065 15.7976 98.905 15.553 97.7323 15.5593C96.5596 15.5657 95.4019 15.8229 94.3369 16.3135C91.5223 17.5639 89.1782 19.6761 87.6432 22.3452C86.1082 25.0143 85.4617 28.102 85.7972 31.1624C85.8834 32.6197 86.4858 33.9987 87.4964 35.0526C88.5071 36.1064 89.8601 36.7662 91.3131 36.9138C92.3278 37.0093 93.2988 36.9909 94.4258 37.0043L94.9289 36.9792C94.991 36.9574 95.0262 36.7294 95.1486 36.2248C95.2543 35.7839 96.0224 32.5369 96.2706 31.4607L96.4383 30.7651H96.4299C96.0291 30.8673 95.6601 30.9629 95.2878 31.0383C94.7953 31.1561 94.2835 31.1694 93.7855 31.0773C93.2874 30.9852 92.8143 30.7898 92.3965 30.5036C92.0776 30.2647 91.8134 29.9604 91.6216 29.6112C91.4298 29.262 91.315 28.8758 91.2846 28.4786C91.1145 27.2897 91.2835 26.077 91.7721 24.9798C92.2607 23.8826 93.0491 22.9455 94.0468 22.2762C94.6597 21.8265 95.3937 21.5712 96.1535 21.5434C96.9133 21.5156 97.664 21.7166 98.3082 22.1203C100.153 23.2468 99.5157 25.6406 99.125 27.3437C98.8231 28.6613 98.5184 29.9783 98.2109 31.2948C97.8303 32.9091 97.2869 34.7295 96.7603 36.4914C96.2471 38.2129 95.7138 39.9915 95.3415 41.5589L94.1021 46.7756C94.1021 46.7756 99.7773 43.4112 100.052 43.2419L100.203 42.6149C100.706 40.4944 101.366 38.1844 101.999 35.9482C102.747 33.3131 103.521 30.584 104.071 28.1064C104.542 26.2268 104.815 24.3031 104.886 22.3667C104.954 21.0922 104.633 19.8271 103.964 18.7395C103.296 17.6519 102.312 16.7935 101.144 16.2783" fill="#09565F"/>
<path d="M84.246 22.0216C84.2109 21.1407 84.0023 20.2754 83.6322 19.4752C83.2621 18.675 82.7378 17.9555 82.0892 17.3581C82.0037 17.2827 81.9216 17.2089 81.8277 17.1368C80.5833 16.1025 79.0152 15.5377 77.3968 15.541C76.123 15.5671 74.8658 15.835 73.6922 16.3305C71.0206 17.4987 68.7652 19.4477 67.2225 21.9211C65.6797 24.3945 64.9219 27.2766 65.0485 30.1886C65.0374 31.1716 65.2302 32.1462 65.6147 33.0509C65.9991 33.9557 66.567 34.7711 67.2824 35.4456C68.601 36.5398 70.2754 37.1124 71.9883 37.0548C72.5451 37.0665 73.1136 37.0665 73.7307 37.0749L74.2624 37.0498C74.2909 37.0397 75.7717 30.767 75.7717 30.767C75.3843 30.8625 75.0204 30.953 74.6565 31.0301C74.1571 31.1551 73.6369 31.172 73.1304 31.0798C72.624 30.9876 72.1431 30.7883 71.7199 30.4954C71.3879 30.2435 71.1145 29.9225 70.9188 29.5547C70.723 29.1868 70.6096 28.7808 70.5862 28.3648C70.4544 27.2677 70.6103 26.1552 71.0387 25.1365C71.4671 24.1178 72.1533 23.2281 73.0297 22.5547C73.7214 22.0526 74.5293 21.7342 75.3776 21.6293C75.817 21.5464 76.2691 21.559 76.7032 21.6664C77.1373 21.7737 77.5432 21.9732 77.8932 22.2513C78.226 22.566 78.4869 22.9487 78.6582 23.3734C78.8296 23.7981 78.9073 24.2547 78.8861 24.7121C78.8874 25.1392 78.8549 25.5658 78.7888 25.9878C78.7485 26.2677 78.6966 26.5527 78.6211 26.8477C78.2711 28.3564 77.9145 29.8651 77.5511 31.3738C77.4046 31.9884 77.2576 32.6031 77.11 33.2177L76.3855 36.5502C76.3503 36.7011 76.3235 36.8537 76.295 37.0163H81.3564L83.4963 27.7563C83.5254 27.6445 83.5534 27.5278 83.5802 27.4059C84.004 25.8879 84.2378 24.3231 84.2762 22.7475C84.2762 22.5044 84.2627 22.2613 84.2409 22.0183" fill="#09565F"/>
<path d="M144.317 22.0216C144.282 21.1407 144.073 20.2754 143.703 19.4752C143.333 18.675 142.809 17.9555 142.16 17.3581C142.076 17.2827 141.993 17.2089 141.899 17.1368C140.654 16.1024 139.086 15.5376 137.468 15.541C136.194 15.5674 134.937 15.8353 133.763 16.3305C131.092 17.4987 128.836 19.4477 127.293 21.9211C125.751 24.3945 124.993 27.2766 125.12 30.1886C125.108 31.1716 125.301 32.1462 125.686 33.0509C126.07 33.9557 126.638 34.7711 127.353 35.4456C128.672 36.54 130.346 37.1126 132.059 37.0548C132.616 37.0665 133.185 37.0665 133.803 37.0749L134.335 37.0498C134.364 37.0397 135.844 30.767 135.844 30.767C135.457 30.8625 135.093 30.953 134.729 31.0301C134.23 31.1551 133.71 31.172 133.203 31.0798C132.697 30.9876 132.216 30.7883 131.793 30.4954C131.46 30.2436 131.187 29.9226 130.991 29.5547C130.795 29.1869 130.682 28.7808 130.659 28.3648C130.526 27.2676 130.681 26.1547 131.11 25.1359C131.538 24.1171 132.225 23.2274 133.102 22.5547C133.794 22.0525 134.602 21.7341 135.45 21.6293C135.89 21.5464 136.342 21.559 136.776 21.6664C137.21 21.7737 137.616 21.9732 137.966 22.2513C138.298 22.5662 138.559 22.949 138.73 23.3736C138.901 23.7983 138.978 24.2548 138.957 24.7121C138.959 25.1392 138.927 25.5658 138.861 25.9878C138.82 26.2677 138.769 26.5527 138.694 26.8477C138.344 28.3564 137.987 29.8651 137.624 31.3738L137.183 33.2177L136.458 36.5502C136.423 36.7011 136.396 36.8537 136.369 37.0163H141.431L143.571 27.7563L143.655 27.4059C144.078 25.8878 144.312 24.323 144.35 22.7475C144.35 22.5044 144.335 22.2613 144.315 22.0183" fill="#09565F"/>
<path d="M124.769 15.7554C123.523 15.7554 122.314 15.7839 121.108 15.7638H121.095C120.719 15.7638 120.699 15.742 120.68 15.8074C120.662 15.8727 120.689 15.7889 120.6 16.1678C119.669 20.092 118.713 24.3616 117.868 27.8198C117.728 28.5752 117.402 29.2837 116.919 29.8812C116.436 30.4786 115.812 30.9461 115.102 31.2412C114.632 31.4623 114.111 31.551 113.594 31.4975C113.078 31.444 112.586 31.2505 112.171 30.9378C111.799 30.6105 111.525 30.1866 111.379 29.7132C111.234 29.2398 111.222 28.7353 111.346 28.2557C111.75 26.1988 114.167 15.7856 114.167 15.7856H109.078C109.078 15.7856 107.348 23.3776 106.789 25.6758C106.242 27.4772 105.986 29.3542 106.031 31.2362C106.089 32.8253 106.76 34.3303 107.904 35.4353C108.936 36.3913 110.24 37.0026 111.635 37.1843C113.03 37.3661 114.447 37.1092 115.689 36.4495C116.945 35.9469 118.1 35.223 119.099 34.3122C119.208 34.2116 119.312 34.1077 119.418 34.0038C119.471 33.9501 119.528 33.8998 119.585 33.8462C120.895 32.4561 121.891 30.8012 122.505 28.9933C122.592 28.7508 122.675 28.5027 122.753 28.249C123.424 26.0999 123.944 23.8621 124.454 21.6979C124.672 20.7676 125.594 16.8567 125.775 16.0823L125.861 15.7654L124.769 15.7554Z" fill="#09565F"/>
<path d="M30.8715 6.40185C33.194 4.38476 35.4097 2.2479 37.5094 0C36.9761 1.84395 36.3622 4.12541 35.5908 7.32383C35.0318 9.62373 34.4789 11.9248 33.9322 14.2269C31.482 24.4323 29.3655 34.9881 25.3976 44.3821C19.0079 59.5193 0.228082 59.9887 0.228082 59.9887C12.2745 55.2648 19.8179 46.3552 22.3956 37.6517C25.4261 27.3877 28.0809 16.9157 30.8497 6.52255L30.8715 6.40185Z" fill="#09565F"/>
<path d="M27.2172 9.04669C26.7593 10.5369 26.2394 12.9341 25.5502 15.5256C25.0471 17.3897 24.6747 18.7693 24.1817 20.6351C21.9931 28.9094 20.0091 37.467 16.8411 45.0892C15.3368 48.6807 13.0412 51.8866 10.1253 54.4683C7.20945 57.05 3.74841 58.9408 0 60C8.38535 55.4739 12.6787 47.0672 14.8689 40.0099C17.4516 31.6853 19.6301 22.4555 22.0434 14.027L22.0686 13.9281C23.8714 12.3959 25.5895 10.7669 27.2155 9.04836" fill="#09565F"/>
</svg>
